<svg width="327" height="297" viewBox="0 0 327 297" fill="none" xmlns="http://www.w3.org/2000/svg">
<path d="M83.0271 91.3162C83.7574 92.9396 96.6853 121.036 124.968 143.285C120.894 159.608 121.812 175.956 127.651 189.893C135.137 207.706 150.177 220.699 171.159 227.475C213.751 241.229 254.035 211.87 255.733 210.613C256.504 210.042 257.016 209.187 257.156 208.238C257.297 207.289 257.055 206.323 256.483 205.553C255.912 204.782 255.058 204.27 254.109 204.129C253.159 203.988 252.193 204.23 251.423 204.802C251.036 205.086 212.386 233.185 173.383 220.59C154.449 214.475 140.975 202.901 134.357 187.078C129.466 175.415 128.454 161.774 131.345 147.967C141.463 155.065 152.58 160.619 164.333 164.446C185.934 171.422 205.8 171.679 221.775 165.177C235.619 159.535 245.97 148.85 250.167 135.855C251.826 130.893 252.482 125.65 252.097 120.432C251.712 115.213 250.293 110.124 247.922 105.459C242.722 95.3692 233.343 87.8923 220.778 83.8345C176.343 69.485 139.788 99.5726 127.265 135.672C101.718 114.516 89.8126 88.7271 89.6548 88.3625C89.4603 87.929 89.1823 87.5381 88.8367 87.2121C88.4912 86.886 88.0847 86.6312 87.6407 86.4622C87.1967 86.2932 86.7237 86.2133 86.2488 86.2271C85.7738 86.2409 85.3063 86.3481 84.8728 86.5426C84.4393 86.7371 84.0484 87.0151 83.7224 87.3607C83.3963 87.7062 83.1415 88.1126 82.9725 88.5567C82.8035 89.0007 82.7236 89.4737 82.7374 89.9486C82.7512 90.4236 82.8584 90.8911 83.0529 91.3246L83.0271 91.3162ZM165.074 97.4077C176.334 90.1147 194.749 83.032 218.554 90.7195C242.557 98.471 248.215 118.355 243.282 133.631C236.422 154.872 209.484 171.424 166.556 157.561C154.629 153.66 143.408 147.864 133.324 140.395L133.549 139.698C139.225 122.124 150.715 106.732 165.099 97.416L165.074 97.4077Z" fill="#E7E1D8"/>
<path d="M94.9374 64.9105L94.5756 67.6572L70.1552 73.5911L69.9401 73.6428L69.8344 73.8372L57.7771 95.8879L55.0305 95.526L37.6531 31.5571L94.9374 64.9105Z" fill="white" stroke="#D9D9D9"/>
<path d="M41.77 36.6196L56.2178 89.8046L58.9932 90.1703L68.9218 72.0117L89.0323 67.1252L89.398 64.3498L41.77 36.6196Z" fill="#FF4D6D"/>
</svg>
